<svg id="Layer_3" enable-background="new 0 0 64 64" height="512" viewBox="0 0 64 64" width="512" xmlns="http://www.w3.org/2000/svg"><path d="m31 43h18.47c-1.88 8.9-8.71 15.98-17.47 18.24v-2.24c0-1.66-1.34-3-3-3h-10c-1.66 0-3-1.34-3-3 0-.83.34-1.58.88-2.12s1.29-.88 2.12-.88 1.58-.34 2.12-.88.88-1.29.88-2.12-.34-1.58-.88-2.12-1.29-.88-2.12-.88h-16.24c-.5-1.92-.76-3.93-.76-6h15c1.66 0 3-1.34 3-3 0-.83-.34-1.58-.88-2.12s-1.29-.88-2.12-.88h-2c-1.66 0-3-1.34-3-3 0-.83.34-1.58.88-2.12s1.29-.88 2.12-.88h7c1.66 0 3-1.34 3-3 0-.83-.34-1.58-.88-2.12s-1.29-.88-2.12-.88h-11.86c4.23-3.73 9.79-6 15.86-6 8.46 0 15.9 4.38 20.16 11h-11.16c-1.66 0-3 1.34-3 3 0 .83.34 1.58.88 2.12s1.29.88 2.12.88h4c1.66 0 3 1.34 3 3 0 .83-.34 1.58-.88 2.12s-1.29.88-2.12.88h-8c-1.66 0-3 1.34-3 3 0 .83.34 1.58.88 2.12s1.29.88 2.12.88z" fill="#69d6f4"/><g fill="#b4dd7f"><path d="m32 59v2.24c-1.92.5-3.93.76-6 .76-11.18 0-20.57-7.65-23.24-18h16.24c.83 0 1.58.34 2.12.88s.88 1.29.88 2.12-.34 1.58-.88 2.12-1.29.88-2.12.88-1.58.34-2.12.88-.88 1.29-.88 2.12c0 1.66 1.34 3 3 3h10c1.66 0 3 1.34 3 3z"/><path d="m24.12 20.88c.54.54.88 1.29.88 2.12 0 1.66-1.34 3-3 3h-7c-.83 0-1.58.34-2.12.88s-.88 1.29-.88 2.12c0 1.66 1.34 3 3 3h2c.83 0 1.58.34 2.12.88s.88 1.29.88 2.12c0 1.66-1.34 3-3 3h-15c0-7.17 3.14-13.6 8.13-18h.01 11.86c.83 0 1.58.34 2.12.88z"/><path d="m50 38c0 1.72-.18 3.39-.53 5h-18.47c-.83 0-1.58-.34-2.12-.88s-.88-1.29-.88-2.12c0-1.66 1.34-3 3-3h8c.83 0 1.58-.34 2.12-.88s.88-1.29.88-2.12c0-1.66-1.34-3-3-3h-4c-.83 0-1.58-.34-2.12-.88s-.88-1.29-.88-2.12c0-1.66 1.34-3 3-3h11.16.01c2.42 3.75 3.83 8.21 3.83 13z"/></g><circle cx="48" cy="16" fill="#ff826e" r="2"/><path d="m48 13c-1.654 0-3 1.346-3 3s1.346 3 3 3 3-1.346 3-3-1.346-3-3-3zm0 4c-.551 0-1-.449-1-1s.449-1 1-1 1 .449 1 1-.449 1-1 1z"/><path d="m48 9v2c2.757 0 5 2.243 5 5h2c0-3.86-3.14-7-7-7z"/><path d="m48 5v2c4.962 0 9 4.038 9 9h2c0-6.065-4.935-11-11-11z"/><path d="m48 1v2c7.168 0 13 5.832 13 13h2c0-8.271-6.729-15-15-15z"/><path d="m26 13c-13.785 0-25 11.215-25 25s11.215 25 25 25 25-11.215 25-25-11.215-25-25-25zm-15.475 8h11.475c1.103 0 2 .897 2 2s-.897 2-2 2h-7c-2.206 0-4 1.794-4 4s1.794 4 4 4h2c1.103 0 2 .897 2 2s-.897 2-2 2h-13.975c.273-6.327 3.11-12 7.5-16zm-6.432 24h14.907c1.103 0 2 .897 2 2s-.897 2-2 2c-2.206 0-4 1.794-4 4s1.794 4 4 4h10c1.103 0 2 .897 2 2v1.446c-1.611.359-3.283.554-5 .554-10.242 0-18.938-6.731-21.907-16zm28.907 14.907v-.907c0-2.206-1.794-4-4-4h-10c-1.103 0-2-.897-2-2s.897-2 2-2c2.206 0 4-1.794 4-4s-1.794-4-4-4h-15.446c-.289-1.296-.47-2.632-.529-4h13.975c2.206 0 4-1.794 4-4s-1.794-4-4-4h-2c-1.103 0-2-.897-2-2s.897-2 2-2h7c2.206 0 4-1.794 4-4s-1.794-4-4-4h-8.944c3.69-2.522 8.147-4 12.944-4 7.417 0 14.021 3.533 18.23 9h-9.23c-2.206 0-4 1.794-4 4s1.794 4 4 4h4c1.103 0 2 .897 2 2s-.897 2-2 2h-8c-2.206 0-4 1.794-4 4s1.794 4 4 4h17.201c-2.038 7.531-7.81 13.54-15.201 15.907zm15.645-17.907h-17.645c-1.103 0-2-.897-2-2s.897-2 2-2h8c2.206 0 4-1.794 4-4s-1.794-4-4-4h-4c-1.103 0-2-.897-2-2s.897-2 2-2h10.612c2.147 3.496 3.388 7.605 3.388 12 0 1.365-.126 2.7-.355 4z"/></svg>